<svg width="744" height="98" viewBox="0 0 744 98" fill="none" xmlns="http://www.w3.org/2000/svg">
<path d="M35.25 42C40.5 42 44.5833 41.2708 47.5 39.8125C52.0833 37.5208 54.375 33.3958 54.375 27.4375C54.375 21.4375 51.9375 17.3958 47.0625 15.3125C44.3125 14.1458 40.2292 13.5625 34.8125 13.5625H12.625V42H35.25ZM39.4375 84.375C47.0625 84.375 52.5 82.1667 55.75 77.75C57.7917 74.9583 58.8125 71.5833 58.8125 67.625C58.8125 60.9583 55.8333 56.4167 49.875 54C46.7083 52.7083 42.5208 52.0625 37.3125 52.0625H12.625V84.375H39.4375ZM0.4375 3.1875H39.875C50.625 3.1875 58.2708 6.39583 62.8125 12.8125C65.4792 16.6042 66.8125 20.9792 66.8125 25.9375C66.8125 31.7292 65.1667 36.4792 61.875 40.1875C60.1667 42.1458 57.7083 43.9375 54.5 45.5625C59.2083 47.3542 62.7292 49.375 65.0625 51.625C69.1875 55.625 71.25 61.1458 71.25 68.1875C71.25 74.1042 69.3958 79.4583 65.6875 84.25C60.1458 91.4167 51.3333 95 39.25 95H0.4375V3.1875ZM88.9375 3.1875H101.5V95H88.9375V3.1875ZM161.375 0.6875C177.583 0.6875 189.583 5.89583 197.375 16.3125C203.458 24.4375 206.5 34.8333 206.5 47.5C206.5 61.2083 203.021 72.6042 196.062 81.6875C187.896 92.3542 176.25 97.6875 161.125 97.6875C147 97.6875 135.896 93.0208 127.812 83.6875C120.604 74.6875 117 63.3125 117 49.5625C117 37.1458 120.083 26.5208 126.25 17.6875C134.167 6.35417 145.875 0.6875 161.375 0.6875ZM162.625 86.5625C173.583 86.5625 181.5 82.6458 186.375 74.8125C191.292 66.9375 193.75 57.8958 193.75 47.6875C193.75 36.8958 190.917 28.2083 185.25 21.625C179.625 15.0417 171.917 11.75 162.125 11.75C152.625 11.75 144.875 15.0208 138.875 21.5625C132.875 28.0625 129.875 37.6667 129.875 50.375C129.875 60.5417 132.438 69.125 137.562 76.125C142.729 83.0833 151.083 86.5625 162.625 86.5625Z" fill="#61AB46"/>
<path d="M264.062 45.25C269.896 45.25 274.5 44.0833 277.875 41.75C281.292 39.4167 283 35.2083 283 29.125C283 22.5833 280.625 18.125 275.875 15.75C273.333 14.5 269.938 13.875 265.688 13.875H235.312V45.25H264.062ZM222.875 3.1875H265.375C272.375 3.1875 278.146 4.20833 282.688 6.25C291.312 10.1667 295.625 17.3958 295.625 27.9375C295.625 33.4375 294.479 37.9375 292.188 41.4375C289.938 44.9375 286.771 47.75 282.688 49.875C286.271 51.3333 288.958 53.25 290.75 55.625C292.583 58 293.604 61.8542 293.812 67.1875L294.25 79.5C294.375 83 294.667 85.6042 295.125 87.3125C295.875 90.2292 297.208 92.1042 299.125 92.9375V95H283.875C283.458 94.2083 283.125 93.1875 282.875 91.9375C282.625 90.6875 282.417 88.2708 282.25 84.6875L281.5 69.375C281.208 63.375 278.979 59.3542 274.812 57.3125C272.438 56.1875 268.708 55.625 263.625 55.625H235.312V95H222.875V3.1875ZM353.5 0.6875C369.708 0.6875 381.708 5.89583 389.5 16.3125C395.583 24.4375 398.625 34.8333 398.625 47.5C398.625 61.2083 395.146 72.6042 388.188 81.6875C380.021 92.3542 368.375 97.6875 353.25 97.6875C339.125 97.6875 328.021 93.0208 319.938 83.6875C312.729 74.6875 309.125 63.3125 309.125 49.5625C309.125 37.1458 312.208 26.5208 318.375 17.6875C326.292 6.35417 338 0.6875 353.5 0.6875ZM354.75 86.5625C365.708 86.5625 373.625 82.6458 378.5 74.8125C383.417 66.9375 385.875 57.8958 385.875 47.6875C385.875 36.8958 383.042 28.2083 377.375 21.625C371.75 15.0417 364.042 11.75 354.25 11.75C344.75 11.75 337 15.0208 331 21.5625C325 28.0625 322 37.6667 322 50.375C322 60.5417 324.562 69.125 329.688 76.125C334.854 83.0833 343.208 86.5625 354.75 86.5625ZM452.188 0.6875C463.812 0.6875 472.833 3.75 479.25 9.875C485.667 16 489.229 22.9583 489.938 30.75H477.812C476.438 24.8333 473.688 20.1458 469.562 16.6875C465.479 13.2292 459.729 11.5 452.312 11.5C443.271 11.5 435.958 14.6875 430.375 21.0625C424.833 27.3958 422.062 37.125 422.062 50.25C422.062 61 424.562 69.7292 429.562 76.4375C434.604 83.1042 442.104 86.4375 452.062 86.4375C461.229 86.4375 468.208 82.9167 473 75.875C475.542 72.1667 477.438 67.2917 478.688 61.25H490.812C489.729 70.9167 486.146 79.0208 480.062 85.5625C472.771 93.4375 462.938 97.375 450.562 97.375C439.896 97.375 430.938 94.1458 423.688 87.6875C414.146 79.1458 409.375 65.9583 409.375 48.125C409.375 34.5833 412.958 23.4792 420.125 14.8125C427.875 5.39583 438.562 0.6875 452.188 0.6875ZM506 3.1875H518.125V47.9375L562.875 3.1875H580.062L541.875 40.1875L581.125 95H564.938L532.812 48.9375L518.125 63V95H506V3.1875ZM592.562 3.1875H659.5V14.4375H604.688V42.3125H655.375V52.9375H604.688V84.0625H660.438V95H592.562V3.1875ZM743.562 3.1875V14.125H712.625V95H700V14.125H669.062V3.1875H743.562Z" fill="black"/>
</svg>
