<?xml version="1.0" encoding="iso-8859-1"?>
<!-- Uploaded to: SVG Repo, www.svgrepo.com, Generator: SVG Repo Mixer Tools -->
<svg fill="#000000" height="800px" width="800px" version="1.1" id="Layer_1" xmlns="http://www.w3.org/2000/svg" xmlns:xlink="http://www.w3.org/1999/xlink" 
	 viewBox="0 0 512 512" xml:space="preserve">
<g>
	<g>
		<g>
			<path d="M479.633,111.304h-28.85v-1.024c0-17.848-14.52-32.367-32.367-32.367H32.367C14.52,77.913,0,92.433,0,110.28v295.146
				c0,15.804,12.857,28.661,28.661,28.661h450.972c17.848,0,32.367-14.52,32.367-32.367V143.672
				C512,125.824,497.48,111.304,479.633,111.304z M28.661,411.826L28.661,411.826c-3.528,0-6.4-2.872-6.4-6.4V110.28
				c0-5.573,4.533-10.106,10.106-10.106h386.048c5.573,0,10.106,4.533,10.106,10.106V401.72c0,3.527,0.568,6.925,1.615,10.106
				H28.661z M489.739,401.72c0,5.573-4.533,10.106-10.106,10.106h-18.744c-5.573,0-10.106-4.533-10.106-10.106V133.565h28.85
				c5.573,0,10.106,4.533,10.106,10.106V401.72z"/>
			<path d="M385.436,218.713H71.001c-6.147,0-11.13,4.983-11.13,11.13s4.983,11.13,11.13,11.13h314.435
				c6.147,0,11.13-4.983,11.13-11.13S391.583,218.713,385.436,218.713z"/>
			<path d="M133.61,196.452h189.217c6.147,0,11.13-4.983,11.13-11.13v-47.861c0-6.147-4.983-11.13-11.13-11.13H133.61
				c-6.147,0-11.13,4.983-11.13,11.13v47.861C122.479,191.469,127.462,196.452,133.61,196.452z M144.74,148.591h166.956v25.6H144.74
				V148.591z"/>
			<path d="M170.852,263.513H71.001c-6.147,0-11.13,4.983-11.13,11.13v99.617c0,6.147,4.983,11.13,11.13,11.13h99.851
				c6.147,0,11.13-4.983,11.13-11.13v-99.617C181.983,268.496,176.999,263.513,170.852,263.513z M159.722,363.13h-77.59v-77.357
				h77.59V363.13z"/>
			<path d="M385.436,268.8H267.13c-6.147,0-11.13,4.983-11.13,11.13s4.983,11.13,11.13,11.13h118.305
				c6.147,0,11.13-4.983,11.13-11.13S391.583,268.8,385.436,268.8z"/>
			<path d="M223.722,291.061h3.061c6.147,0,11.13-4.983,11.13-11.13s-4.983-11.13-11.13-11.13h-3.061
				c-6.147,0-11.13,4.983-11.13,11.13S217.574,291.061,223.722,291.061z"/>
			<path d="M385.436,313.322h-0.693c-6.147,0-11.13,4.983-11.13,11.13c0,6.147,4.983,11.13,11.13,11.13h0.693
				c6.147,0,11.13-4.983,11.13-11.13C396.566,318.305,391.583,313.322,385.436,313.322z"/>
			<path d="M223.722,335.583H347.27c6.147,0,11.13-4.983,11.13-11.13c0-6.147-4.983-11.13-11.13-11.13H223.722
				c-6.147,0-11.13,4.983-11.13,11.13C212.591,330.6,217.574,335.583,223.722,335.583z"/>
			<path d="M385.436,357.844H223.722c-6.147,0-11.13,4.983-11.13,11.13c0,6.147,4.983,11.13,11.13,11.13h161.714
				c6.147,0,11.13-4.983,11.13-11.13C396.566,362.827,391.583,357.844,385.436,357.844z"/>
		</g>
	</g>
</g>
</svg>